<?xml version="1.0" standalone="no"?><!DOCTYPE svg PUBLIC "-//W3C//DTD SVG 1.1//EN" "http://www.w3.org/Graphics/SVG/1.1/DTD/svg11.dtd"><svg class="icon" width="200px" height="200.00px" viewBox="0 0 1024 1024" version="1.1" xmlns="http://www.w3.org/2000/svg"><path fill="#e6e6e6" d="M512 64a448 448 0 1 1-448 448 448 448 0 0 1 448-448m0-64a512 512 0 1 0 512 512 512 512 0 0 0-512-512z"  /><path fill="#e6e6e6" d="M768 512a32 32 0 0 0-31.36-32h-192v-192a32 32 0 0 0-64 0v192h-192a32 32 0 0 0 0 64h192v192a32 32 0 0 0 64 0v-192h192A32 32 0 0 0 768 512z"  /></svg>