<?xml version="1.0" standalone="no"?><!DOCTYPE svg PUBLIC "-//W3C//DTD SVG 1.1//EN" "http://www.w3.org/Graphics/SVG/1.1/DTD/svg11.dtd"><svg class="icon" width="200px" height="145.45px" viewBox="0 0 1408 1024" version="1.1" xmlns="http://www.w3.org/2000/svg"><path fill="#fdd000" d="M1088 320m-64 0a1 1 0 1 0 128 0 1 1 0 1 0-128 0ZM369.792 96C377.664 96 384 90.304 384 83.2L384 44.8c0-7.04-6.336-12.8-14.208-12.8L270.208 32C262.336 32 256 37.696 256 44.8l0 38.4c0 7.04 6.336 12.8 14.208 12.8L369.792 96zM736 832c159.04 0 288-128.96 288-288C1024 384.96 895.04 256 736 256S448 384.96 448 544C448 703.04 576.96 832 736 832zM736 320C859.712 320 960 420.288 960 544c0 123.712-100.288 224-224 224C612.288 768 512 667.712 512 544 512 420.288 612.288 320 736 320zM0 256l0 640c0 128 128 128 128 128l1152 0c0 0 128 0 128-128L1408 256c0-128-128-128-128-128l-243.2 0-67.968-113.216C963.968 6.592 952.192 0 942.976 0L529.024 0c-9.408 0-21.12 6.848-25.856 14.784L435.2 128 128 128C128 128 0 128 0 256zM478.336 192l71.296-128 366.592 0 81.088 128 281.984 0C1279.296 192 1344 192 1344 257.152l0 637.632C1344 960 1279.296 960 1279.296 960L128.704 960C128.704 960 64 960 64 894.784L64 257.152C64 192 128.704 192 128.704 192L478.336 192z" /></svg>