<?xml version="1.0" standalone="no"?><!DOCTYPE svg PUBLIC "-//W3C//DTD SVG 1.1//EN" "http://www.w3.org/Graphics/SVG/1.1/DTD/svg11.dtd"><svg class="icon" width="200px" height="200.00px" viewBox="0 0 1024 1024" version="1.1" xmlns="http://www.w3.org/2000/svg"><path fill="#fdd000" d="M492.7 952.7c-13.2 0-31.6-5.1-39.3-24.4-7.3-18.1-30.2-34.5-39.6-39.2-8.2-4.1-18.5-16.9-15.6-29.2 1.4-6 7.1-16.2 28.9-16.2 13 0 22.8 2.2 30 4.9V747.2c0-11.1 7.4-27.7 27.7-27.7 27.7 0 27.7 24.2 27.7 32.1v68.8c0 5.5-4.4 9.9-9.9 9.9s-9.9-4.4-9.9-9.9v-68.8c0-11.4-1.2-12.3-7.8-12.3-5 0-7.7 2.7-7.8 8v112.6c0 4.9-2.7 9.3-7 11.5-4.3 2.2-9.5 1.9-13.5-0.9-3.7-2.6-12.4-7-29.3-7-5.8 0-8.4 0.9-9.5 1.4 0.5 2 3.2 5.5 5 6.4 9.5 4.8 38.9 24.1 49.1 49.5 5.6 14 22.8 11.9 24.7 11.6 0.6-0.1 1.2-0.1 1.8-0.1h70.8c3-0.1 18.4-1.2 21.3-18.3 4.2-25 4.3-88.4 4.3-91.4-0.2-5.7-4-5.7-5.6-5.7-7.4 0-8.1 1.6-8.6 2.8-1 2.2-1.4 6.2-1.4 11.6v26.6c0 5.5-4.4 9.9-9.9 9.9s-9.9-4.4-9.9-9.9v-26.6c0-8.5 0.9-14.5 3-19.4 6.3-14.9 21.8-14.9 26.9-14.9 18.7 0 25.4 15.2 25.4 25.4 0 2.8-0.1 67.7-4.6 94.8-4.6 27.6-28.7 34.9-40.8 34.9H499c-2.1 0.5-4.1 0.6-6.3 0.6z m6.6-0.4z"  /><path fill="#fdd000" d="M569.1 848.1c-5.5 0-9.9-4.4-9.9-9.9v-24.4c0-10.1-1.9-10.1-10.1-10.1-3.7 0-5.6 1.9-5.6 5.6V836c0 5.5-4.4 9.9-9.9 9.9s-9.9-4.4-9.9-9.9v-26.6c0-10.2 6.8-25.4 25.4-25.4 7.4 0 29.9 0 29.9 29.9v24.4c0 5.4-4.5 9.8-9.9 9.8z"  /><path fill="#fdd000" d="M502.5 845.9c-5.5 0-9.9-4.4-9.9-9.9v-35.5c0-9.3 7.4-23.2 27.7-23.2 15.2 0 23.2 13.9 23.2 27.7v25.9c0 5.5-4.4 9.9-9.9 9.9s-9.9-4.4-9.9-9.9V805s-0.4-7.8-3.4-7.8c-7.7 0-7.8 3.4-7.8 3.4V836c-0.1 5.4-4.5 9.9-10 9.9zM352 806.5c-1.5 0-3-0.3-4.4-1-63.1-31.4-116.4-79.6-154.2-139.3-38.8-61.4-59.3-132.4-59.3-205.3 0-7.5 0.2-15.1 0.6-22.6 0.3-5.5 5-9.6 10.5-9.3 5.5 0.3 9.6 5 9.3 10.5-0.4 7.1-0.6 14.3-0.6 21.4 0 139.4 77.6 264.7 202.5 326.9 4.9 2.4 6.9 8.4 4.5 13.3-1.8 3.4-5.3 5.4-8.9 5.4zM685.7 806.5c-3.6 0-7.1-2-8.9-5.5-2.4-4.9-0.4-10.8 4.5-13.3 124.9-62.2 202.5-187.4 202.5-326.9 0-7.9-0.3-15.8-0.8-23.6-0.3-5.5 3.8-10.2 9.3-10.5 5.5-0.4 10.2 3.8 10.5 9.3 0.5 8.2 0.8 16.6 0.8 24.9 0 72.9-20.5 143.9-59.3 205.3-37.7 59.7-91.1 107.9-154.2 139.3-1.4 0.7-2.9 1-4.4 1zM310.4 159.2c-3.2 0-6.3-1.5-8.2-4.4-3-4.5-1.8-10.7 2.7-13.7 63.4-42.5 137.4-65 214-65 75.9 0 149.3 22.1 212.2 63.8 4.6 3 5.8 9.2 2.8 13.7-3 4.6-9.2 5.8-13.7 2.8-59.7-39.6-129.3-60.5-201.3-60.5-72.7 0-142.9 21.3-203 61.6-1.7 1.2-3.6 1.7-5.5 1.7zM607.7 637.3c-3.5 0-7-1.9-8.7-5.2-2.6-4.8-0.8-10.8 4-13.4 3.1-1.7 6.3-3.5 9.3-5.3 59.5-36.5 92.7-102.5 86.6-172.1-0.5-5.5 3.5-10.3 9-10.7 5.5-0.5 10.3 3.5 10.7 9 3.3 37-3.7 74.2-20.1 107.6-16.9 34.3-43.1 63.1-75.8 83.2-3.4 2.1-6.8 4.1-10.3 5.9-1.5 0.7-3.1 1-4.7 1zM405.5 309.9c-3.1 0-6.2-1.5-8.1-4.2-3.2-4.5-2.1-10.7 2.4-13.8 3.6-2.5 7.2-4.9 11-7.2 32.8-20.1 70.3-30.4 108.5-29.9 37.2 0.5 73.5 11.2 105 30.8 4.6 2.9 6.1 9 3.2 13.7-2.9 4.6-9 6.1-13.7 3.2-59.3-37-133.1-37.4-192.7-0.8-3.4 2.1-6.7 4.3-9.9 6.5-1.7 1.1-3.7 1.7-5.7 1.7zM436.2 642.6c-1.4 0-2.8-0.3-4.1-0.9-36.5-16.8-67-43.8-88.1-78.2-20.9-34.1-31.2-73.1-29.8-112.9 0.2-5.5 4.8-9.8 10.2-9.6 5.5 0.2 9.8 4.8 9.6 10.2-1.2 35.9 8.1 71.1 26.9 101.8 19 31 46.5 55.4 79.5 70.5 5 2.3 7.2 8.2 4.9 13.1-1.7 3.8-5.3 6-9.1 6zM219.7 281.5h-16.2c-27.3 0-49.6-22.2-49.6-49.6v-16.2c0-27.3 22.2-49.6 49.6-49.6h16.2c27.3 0 49.6 22.2 49.6 49.6V232c0 27.3-22.2 49.5-49.6 49.5z m-16.1-95.4c-16.4 0-29.7 13.3-29.7 29.7V232c0 16.4 13.3 29.7 29.7 29.7h16.2c16.4 0 29.7-13.3 29.7-29.7v-16.2c0-16.4-13.3-29.7-29.7-29.7h-16.2z"  /><path fill="#fdd000" d="M250.4 412.8h-77.5c-23.6 0-42.7-19.2-42.7-42.7v-65.6c0-23.6 19.2-42.7 42.7-42.7h77.5c23.6 0 42.7 19.2 42.7 42.7V370c0.1 23.6-19.1 42.8-42.7 42.8z m-77.5-131.3c-12.6 0-22.9 10.3-22.9 22.9V370c0 12.6 10.3 22.9 22.9 22.9h77.5c12.6 0 22.9-10.3 22.9-22.9v-65.6c0-12.6-10.3-22.9-22.9-22.9h-77.5zM916.7 353H752.9c-16.4 0-29.7-13.3-29.7-29.7V212.9c0-16.4 13.3-29.7 29.7-29.7h163.8c16.4 0 29.7 13.3 29.7 29.7v110.3c0.1 16.4-13.3 29.8-29.7 29.8zM752.9 203c-5.5 0-9.9 4.4-9.9 9.9v110.3c0 5.5 4.4 9.9 9.9 9.9h163.8c5.5 0 9.9-4.4 9.9-9.9V212.9c0-5.5-4.4-9.9-9.9-9.9H752.9zM893.7 395.8H775.9c-5.5 0-9.9-4.4-9.9-9.9s4.4-9.9 9.9-9.9h117.8c5.5 0 9.9 4.4 9.9 9.9s-4.4 9.9-9.9 9.9z"  /></svg>