<?xml version="1.0" standalone="no"?><!DOCTYPE svg PUBLIC "-//W3C//DTD SVG 1.1//EN" "http://www.w3.org/Graphics/SVG/1.1/DTD/svg11.dtd"><svg class="icon" width="200px" height="200.00px" viewBox="0 0 1024 1024" version="1.1" xmlns="http://www.w3.org/2000/svg"><path fill="#2c2c2c" d="M505.292576 602.177584l-50.678311-4.471616 34.282387 37.263464z"  /><path fill="#2c2c2c" d="M748.250364 122.224163c-1.490539-4.471616-1.490539-7.452693-1.490539-7.452693l-22.358078 7.452693c-64.093159 23.848617-245.938865 93.90393-254.882096 108.809316L216.128093 715.458515c-10.43377 19.377001-2.981077 43.225619 16.395924 53.659389l278.730714 146.07278c19.377001 10.43377 43.225619 2.981077 53.659388-16.395924l253.391558-482.934498c10.43377-17.886463-56.640466-250.41048-70.055313-293.636099z m-268.296943 626.026201c-4.471616 10.43377-10.43377 17.886463-17.886463 23.848617-5.962154 5.962154-13.414847 8.943231-20.86754 11.924309l-7.452693-22.358079c8.943231-1.490539 16.395924-8.943231 22.358078-19.377001 4.471616-10.43377 5.962154-16.395924 2.981078-20.86754-2.981077-4.471616-7.452693-5.962154-11.924309-5.962155-5.962154 0-10.43377 4.471616-16.395924 14.905386-5.962154 8.943231-11.924309 14.905386-20.86754 20.86754-7.452693 4.471616-17.886463 4.471616-28.320233 0s-14.905386-13.414847-17.886463-23.848617c-1.490539-11.924309 0-20.86754 4.471616-29.810772 4.471616-10.43377 10.43377-17.886463 16.395924-22.358078 5.962154-4.471616 11.924309-7.452693 19.377001-10.43377l7.452693 22.358078c-8.943231 1.490539-14.905386 7.452693-19.377001 16.395925-4.471616 8.943231-4.471616 14.905386-2.981077 19.377001 2.981077 4.471616 5.962154 5.962154 10.43377 5.962154 4.471616-1.490539 8.943231-5.962154 14.905385-13.414847 5.962154-8.943231 13.414847-16.395924 22.358079-20.86754 8.943231-4.471616 19.377001-4.471616 29.810772 1.490539 8.943231 4.471616 14.905386 11.924309 16.395924 23.848617 4.471616 7.452693 2.981077 17.886463-2.981077 28.320233z m71.545851-141.601165l-20.86754-1.490538-25.339156 50.678311 13.414848 14.905386-11.924309 23.848617-87.941776-99.866084 10.43377-22.358079 132.657933 11.924309-10.43377 22.358078z m19.377002-40.244541l-110.299855-55.149927 10.43377-22.358079 89.432315 44.716157 29.810771-59.621543 20.86754 10.43377-40.244541 81.979622z m50.678311-98.375546l-110.299854-55.149927 40.244541-80.489083 20.86754 10.43377-29.810771 59.621543 23.848617 11.924308 22.358079-44.716157 20.86754 10.43377-22.358079 44.716157 25.339156 11.924309 29.810771-59.621543 20.86754 10.43377-41.73508 80.489083z m114.77147-228.052402c-1.490539 2.981077-1.490539 5.962154-2.981077 8.943232-1.490539 2.981077-2.981077 4.471616-4.471616 7.452693-13.414847 17.886463-38.754003 22.358079-58.131004 11.924308-22.358079-11.924309-31.30131-40.244541-19.377001-62.60262 7.452693-14.905386 22.358079-23.848617 37.263464-25.339156 5.962154 0 11.924309 0 17.886463 1.490539 2.981077 1.490539 4.471616 1.490539 7.452693 2.981077 19.377001 11.924309 28.320233 34.282387 22.358078 55.149927z"  /></svg>