<?xml version="1.0" standalone="no"?><!DOCTYPE svg PUBLIC "-//W3C//DTD SVG 1.1//EN" "http://www.w3.org/Graphics/SVG/1.1/DTD/svg11.dtd"><svg class="icon" width="200px" height="200.00px" viewBox="0 0 1024 1024" version="1.1" xmlns="http://www.w3.org/2000/svg"><path fill="#fdd000" d="M774.938 579.186c-4.496-2.35-9.55-3.592-14.616-3.592-11.912 0-22.716 6.574-28.208 17.176C695.608 663.462 609.21 704 512.008 704c-99.468 0-187.68-41.124-219.514-109.994-5.178-11.178-16.488-18.398-28.814-18.398-4.588 0-9.042 0.97-13.316 2.926-15.852 7.348-22.794 26.234-15.468 42.114C276.908 711.53 388.27 768 512.008 768c120.68 0 229.208-54.562 276.482-146.11C796.508 606.368 790.402 587.196 774.938 579.186zM825.586 462.348C804.624 435.186 778.048 416 736.274 416c-41.774 0-68.124 19.146-89.222 46.234-11.004 14.124-9.05 33.266 7.492 44.414 5.828 3.926 12.694 5.352 19.856 5.352 10.79-0.002 21.014-4.218 27.34-12.358 6.9-8.87 15.414-19.642 34.536-19.642 19.22 0 27.664 10.722 34.46 19.554 6.356 8.208 16.61 12.446 27.434 12.446 7.162 0 14.014-1.416 19.844-5.366C833.116 496.37 836.514 476.5 825.586 462.348zM377.584 462.348C356.624 435.186 330.048 416 288.274 416s-68.126 19.146-89.224 46.234c-11.002 14.124-9.05 33.266 7.494 44.414 5.828 3.926 12.692 5.352 19.854 5.352 10.79-0.002 21.014-4.218 27.338-12.358 6.902-8.87 15.416-19.642 34.538-19.642 19.22 0 27.664 10.722 34.46 19.554 6.354 8.208 16.608 12.446 27.432 12.446 7.164 0 14.014-1.416 19.844-5.366C385.116 496.37 388.514 476.5 377.584 462.348zM512 64C264.576 64 64 264.576 64 512s200.576 448 448 448 448-200.576 448-448S759.424 64 512 64zM783.53 783.53C711 856.056 614.57 896 512 896s-199-39.944-271.53-112.47C167.944 711 128 614.57 128 512s39.944-199 112.47-271.53C313 167.944 409.43 128 512 128s199 39.944 271.53 112.47C856.056 313 896 409.43 896 512S856.056 711 783.53 783.53z" /></svg>