<?xml version="1.0" standalone="no"?><!DOCTYPE svg PUBLIC "-//W3C//DTD SVG 1.1//EN" "http://www.w3.org/Graphics/SVG/1.1/DTD/svg11.dtd"><svg class="icon" width="200px" height="200.00px" viewBox="0 0 1024 1024" version="1.1" xmlns="http://www.w3.org/2000/svg"><path fill="#fdd000" d="M823.929824 238.554164l-304.259632-108.529809c-6.122441-3.213181-12.127202-3.213181-18.275225 0L196.995141 238.694357c-12.270465 6.288217-21.325701 19.167548-21.325701 31.894408l0 220.247216c0 44.61001 9.197476 89.349981 24.39869 127.672798 42.653449 111.727641 137.00842 169.207773 225.222531 226.685859 24.397666 12.868075 48.65514 28.809139 69.981864 44.751227 6.122441 3.222391 12.129248 6.438643 18.275225 6.438643 6.122441 0 12.107759-3.216251 15.180747-6.438643 24.373107-16.108886 45.581128-28.810163 69.958328-44.751227 88.2356-57.478086 182.592618-114.959242 225.242997-226.685859 15.344476-38.321794 24.39869-79.70839 24.39869-127.672798L848.328513 270.426059C848.328513 257.697153 839.131037 244.982574 823.929824 238.554164zM803.521005 489.732857c0 41.020252-6.522554 78.768995-19.424398 112.892163-38.85289 95.659687-123.07713 150.299121-213.679637 208.528314-19.423375 13.628392-38.84982 23.965831-58.274218 37.582967-19.425422-13.617136-38.84982-23.953551-58.275241-37.582967-90.607624-54.617945-174.830841-109.431342-213.704197-208.528314-12.902868-34.286897-19.425422-71.871911-19.425422-112.892163L220.737892 277.756001l291.40486-102.382808 291.379277 102.382808L803.522028 489.732857zM265.547447 492.619604c0 35.119869 5.513574 67.297732 16.445554 96.65741 32.869618 84.845387 104.140849 131.767046 180.808996 178.535209 16.447601 11.67183 32.870642 20.514219 49.315172 32.17684L512.117169 223.456305l-246.570745 87.660502L265.546424 492.619604z" /></svg>