<?xml version="1.0" standalone="no"?><!DOCTYPE svg PUBLIC "-//W3C//DTD SVG 1.1//EN" "http://www.w3.org/Graphics/SVG/1.1/DTD/svg11.dtd"><svg class="icon" width="200px" height="200.00px" viewBox="0 0 1024 1024" version="1.1" xmlns="http://www.w3.org/2000/svg"><path fill="#fdd000" d="M802.464 551.972c53.645-73.803 94.846-136.448 94.846-207.319 0-115.108-90.861-208.358-203.055-208.358s-203.053 93.314-203.053 208.358c0 63.627 35.315 124.38 81.478 190.022l-55.546 18.929-107.657-36.22c13.303-23.689 21.826-46.66 21.826-71.388 0-65.325-49.662-118.24-110.848-118.24-61.248 0-110.842 52.915-110.842 118.24 0 27.279 11.217 53.705 27.467 81.047l-0.491 0.064-151.439 360.597 228.804-91.881 208.205 91.881 195.454-91.881 225.86 91.881-141.011-335.733zM694.315 243.443c54.443 0 98.588 45.286 98.588 101.21s-44.207 101.278-98.588 101.278c-54.502 0-98.583-45.355-98.583-101.278 0.002-55.923 44.083-101.21 98.583-101.21l0 0zM320.521 388.57c29.668 0 53.828 25.713 53.828 57.427 0 31.648-24.16 57.423-53.828 57.423-29.734 0-53.833-25.775-53.833-57.423-0.002-31.714 24.096-57.427 53.833-57.427l0 0zM713.69 741.212l-191.65 88.354-204.279-88.354-152.356 73.867 87.307-239.748 14.225-2.869c17.348 24.663 36.292 50.703 53.585 79.607 21.515-36.608 44.141-67.019 63.45-94.946l133.289 45.549 83.437-28.907c30.534 41.696 63.394 85.677 93.559 134.163 28.262-46.202 57.51-86.528 84.915-123.921l88.034 234.007-153.515-76.802z" /></svg>