<?xml version="1.0" standalone="no"?><!DOCTYPE svg PUBLIC "-//W3C//DTD SVG 1.1//EN" "http://www.w3.org/Graphics/SVG/1.1/DTD/svg11.dtd"><svg class="icon" width="200px" height="197.30px" viewBox="0 0 1038 1024" version="1.1" xmlns="http://www.w3.org/2000/svg"><path fill="#fdd000" d="M888.025119 567.190997M998.60768 261.078157c-16.45374-40.219004-40.761356-76.252685-72.266907-107.117646C865.585037 94.505397 784.863574 61.762669 699.045023 61.762669c-67.750033 0-133.35624 20.700461-188.240245 58.882062-55.047734-39.268352-120.939443-60.565401-189.012841-60.565401-85.934185 0-166.725232 33.456996-227.495294 94.213755-30.783097 30.78412-54.579059 66.744123-70.727855 106.881263-15.578814 38.718837-23.366174 79.555917-23.147186 121.374348 0.216941 41.293475 8.238638 81.427544 23.840988 119.289873 16.169261 39.234583 39.781028 74.244958 70.184479 104.062054 31.880081 31.872918 316.898487 314.696332 322.238099 319.993988 24.555256 24.520463 57.462736 38.025035 92.669586 38.025035 35.211966 0 68.128657-13.507642 92.694145-38.037315 13.521968-13.424754 306.5897-304.401872 321.896314-319.653227 31.426757-29.655414 55.902194-64.510246 72.755024-103.609753 16.331967-37.892005 24.831548-78.118172 25.261337-119.563096C1022.397502 341.063863 1014.539534 300.025191 998.60768 261.078157zM863.890442 543.306007l-1.044796 1.016143c-4.457522 4.470825-212.666564 211.205283-322.137815 319.893704l-0.102331 0.101307c-8.143471 8.139378-19.24225 12.622482-31.250748 12.622482-12.004405 0-23.096021-4.480035-31.229259-12.613272l-0.119727-0.118704c-2.907213-2.8847-291.066145-288.822035-322.203306-319.961242l-0.324388-0.320295c-43.575448-42.672892-67.753103-100.145861-68.076468-161.832805-0.329505-62.796208 23.962761-121.855302 68.397786-166.292374 44.337811-44.327578 103.288434-68.739571 165.992545-68.739571 58.891272 0 115.584482 21.783119 159.634744 61.33595l28.727275 25.795503 29.016871-25.468045c44.068681-38.678928 100.846826-59.98007 159.874197-59.98007 62.939471 0 122.05587 23.931039 166.4428 67.367317 45.465494 44.541449 70.146617 103.509469 69.496817 166.042687C934.347121 443.588911 909.098064 500.82038 863.890442 543.306007zM320.581366 218.950687c-39.73805 0-77.392648 15.771195-106.028848 44.406372-28.636201 28.636201-44.406372 66.291822-44.406372 106.028848 0 16.887622 12.736069 29.623691 29.625738 29.623691s29.624714-12.735046 29.624714-29.623691c0-23.458271 9.292644-45.669132 26.164916-62.541405 16.872273-16.870226 39.081087-26.161846 62.538335-26.161846 15.719007 0 27.841092-11.034311 29.444613-26.182312 2.877537-7.77815 2.232854-15.83771-1.90335-22.545482C340.620771 223.812415 331.252403 218.950687 320.581366 218.950687z" /></svg>