<?xml version="1.0" standalone="no"?><!DOCTYPE svg PUBLIC "-//W3C//DTD SVG 1.1//EN" "http://www.w3.org/Graphics/SVG/1.1/DTD/svg11.dtd"><svg class="icon" width="200px" height="200.00px" viewBox="0 0 1024 1024" version="1.1" xmlns="http://www.w3.org/2000/svg"><path fill="#fdd000" d="M956.1088 944.6912c-0.9728-5.0176-2.304-17.0496-4.352-36.096s-4.7616-39.3728-8.0384-60.7744c-3.4304-21.4016-6.4-42.24-9.2672-61.952-2.9696-19.7632-5.1712-33.4848-6.8096-40.8576-4.096-14.1824-9.0112-25.7536-14.2848-34.8672-5.4272-9.1136-16.4864-17.9712-32.9728-26.1632-5.7344-2.4576-14.4384-5.9904-26.0096-10.496-11.5712-4.5056-24.7808-9.5232-39.6288-14.848-14.848-5.3248-30.3616-10.9056-46.592-16.7424-16.2304-5.8368-31.5904-11.4176-46.592-16.7424-14.6944-5.4272-27.648-9.6768-38.4-13.056-10.752-3.3792-18.2784-5.7344-22.3232-7.4752-12.544-3.4304-20.8384-7.0656-24.9344-11.3152-4.096-4.096-6.656-11.0592-7.4752-21.0944-0.8192-4.9152-1.2288-11.9808-1.2288-21.0944v-26.0096c0-9.9328 0.4096-20.1728 1.2288-31.0784 8.2944-8.192 16.64-17.3056 24.9344-27.2384 6.656-9.1136 13.056-19.2 19.3536-30.3616 6.2464-11.3152 10.9056-23.7056 14.2848-37.888 5.7344-26.4192 9.2672-47.1552 10.496-61.952 1.2288-14.848 1.792-23.552 1.792-26.1632 0-4.9152 2.304-7.3728 6.8096-6.8096 4.5056 0.4096 9.2672-2.304 14.2848-8.0384 3.4304-3.1232 5.5808-11.8272 6.8096-26.0096 1.2288-14.0288 1.792-29.8496 1.792-47.1552 0-17.4592-0.4096-34.048-1.2288-49.7152-0.8192-15.8208-1.2288-27.392-1.2288-34.8672-1.6384-23.9616-8.704-44.1344-21.0944-60.2112-12.288-16.0768-28.0576-26.2656-47.1552-30.3616-16.64-3.3792-28.0576-4.352-35.1232-3.3792-6.5536 1.2288-11.9808 0.256-16.0768-3.0208-2.4576-1.6384-5.0176-3.9424-7.4752-6.8096-2.4576-2.8672-5.5808-5.9904-9.2672-9.2672-3.6864-3.1232-8.8576-6.8096-15.5136-10.496-6.656-3.6864-15.4112-7.0656-26.1632-10.496-10.0352-2.56-24.7808-3.7888-44.2368-3.7888-19.456 0-40.0384 1.792-61.5936 5.0176-21.504 3.3792-42.752 8.6016-63.3344 15.5136-20.8384 6.9632-37.1712 15.9232-49.7152 26.5728-23.9616 22.3232-39.5264 46.848-46.592 73.2672-6.9632 26.4192-11.8272 54.2208-14.2848 83.0976-1.6384 28.8768-2.7136 51.2-3.1232 67.0208-0.256 15.8208 2.7136 30.5152 9.4208 44.6976 2.4576 6.656 6.4 11.008 11.7248 13.056 5.4272 2.048 8.704 4.7616 9.4208 8.0384 0.6656 3.2768 2.8672 14.2848 6.2464 32.9728 3.3792 18.5344 10.752 39.1168 22.3232 61.44 5.7344 11.7248 12.544 22.6304 19.8656 32.9728 7.4752 10.3424 14.848 19.3536 22.3232 26.6752 8.2944 9.1136 17.0496 17.3056 26.1632 24.7808v72.0384c0 6.5536-4.7616 11.7248-14.2848 15.5136-9.5232 3.6864-20.5824 6.8096-32.9728 9.2672-5.7344 1.6384-18.2784 4.5056-37.1712 8.704-19.0464 4.1984-39.2192 9.1136-60.7744 14.848-21.4016 5.9904-42.24 11.9808-62.0032 18.688-19.8656 6.5536-33.6384 12.8-41.0112 18.5344-14.848 11.5712-25.344 22.7328-31.5904 33.4848-6.2464 10.752-10.9056 20.992-14.2848 31.0784-1.6384 4.9152-4.5056 17.5616-8.704 37.888-4.096 20.1728-8.704 41.9328-13.6192 65.1264-4.9152 23.1424-9.2672 44.8-13.056 65.1264-3.6864 20.1728-6.144 33.2288-6.8096 39.1168-0.9728 6.656 0 12.6464 2.4576 17.9712 2.4576 5.4272 5.9904 10.0864 10.496 13.6192 4.5056 3.7888 9.2672 6.8096 14.2848 9.4208 5.0176 2.4576 9.1136 4.096 12.544 4.9152 15.6672 4.2496 37.5808 8.192 65.2288 11.8272 27.648 3.6864 59.5456 6.9632 95.6416 9.9328 36.096 3.0208 75.6224 5.1712 118.6304 6.8096 43.1616 1.792 88.2688 2.6112 135.424 2.6112s91.9552-1.0752 134.7072-3.1232c42.752-2.048 81.7152-4.7616 117.4016-8.0384 35.6864-3.1232 66.8672-6.8096 93.8496-10.496 26.9824-3.7888 47.2576-7.3728 61.44-10.6496 16.7424-4.096 27.2384-9.9328 31.744-17.3056 4.352-7.4752 6.0928-16.7424 5.2736-27.3408z m-133.6832-74.3936c-23.1424 32.0512-81.408 71.936-83.8656 73.6256-2.3552 1.6384-5.1712 2.4064-7.936 2.4064s-5.5296-0.8192-7.936-2.4064c-2.4576-1.6896-60.672-41.5744-83.8656-73.6256-7.9872-11.0592-17.8688-24.7808-17.8688-44.3392 0-32.8192 27.6992-59.4944 61.696-59.4944 18.8928 0 36.4032 18.3296 47.9744 32.1024 11.5712-13.7728 29.0816-32.1024 47.9744-32.1024 33.9968 0 61.696 26.6752 61.696 59.4944 0.0512 19.5584-9.8816 33.3312-17.8688 44.3392z" /></svg>