<?xml version="1.0" standalone="no"?><!DOCTYPE svg PUBLIC "-//W3C//DTD SVG 1.1//EN" "http://www.w3.org/Graphics/SVG/1.1/DTD/svg11.dtd"><svg class="icon" width="200px" height="200.00px" viewBox="0 0 1024 1024" version="1.1" xmlns="http://www.w3.org/2000/svg"><path fill="#fdd000" d="M459.81754 624.461807l-76.03185 15.20629 15.20629-76.053236L834.62522 64.020986l60.846946 60.82536L459.81754 624.461807zM568.862407 192.506672c-3.828404 0-290.361735 0-290.361735 0-47.511787 0-86.03307 38.521283-86.03307 86.03307l0 466.413572c0 47.511787 38.521283 86.03307 86.03307 86.03307l466.413572 0c47.511787 0 86.03307-38.521283 86.03307-86.03307 0 0 0-353.212922 0-357.01994 0-17.808926 14.432015-32.262526 32.262326-32.262526 17.808926 0 32.262526 14.4536 32.262526 32.262526 0 3.807019 0 378.528158 0 378.528158 0 71.278473-57.792816 129.049704-129.049704 129.049704L256.992255 895.511235c-71.278473 0-129.049704-57.771231-129.049704-129.049704L127.942551 257.031525c0-71.278473 57.771231-129.049704 129.049704-129.049704 0 0 308.041548 0 311.869952 0 17.808726 0 32.262326 14.4536 32.262326 32.262326C601.124733 178.074657 586.671133 192.506672 568.862407 192.506672z" /></svg>