<?xml version="1.0" standalone="no"?><!DOCTYPE svg PUBLIC "-//W3C//DTD SVG 1.1//EN" "http://www.w3.org/Graphics/SVG/1.1/DTD/svg11.dtd"><svg class="icon" width="200px" height="200.00px" viewBox="0 0 1024 1024" version="1.1" xmlns="http://www.w3.org/2000/svg"><path fill="#fdd000" d="M519.996 967.792c-95.846 0-188.57-34.454-261.084-97.048-3.342-2.874-3.702-7.934-0.828-11.278a8.014 8.014 0 0 1 11.292-0.81c69.592 60.066 158.6 93.144 250.62 93.144 92.036 0 181.058-33.078 250.652-93.176a8.016 8.016 0 0 1 11.292 0.842 8.008 8.008 0 0 1-0.828 11.278c-72.514 62.578-165.236 97.048-261.116 97.048zM907.834 519.996a8.006 8.006 0 0 1-7.902-6.856 386.02 386.02 0 0 0-3.92-22.67c-22.288-108.716-90.818-202.462-187.992-257.188a7.976 7.976 0 0 1-3.044-10.884c2.154-3.874 7.09-5.208 10.884-3.046 101.218 56.998 172.594 154.648 195.832 267.91a417.012 417.012 0 0 1 4.078 23.598 8.006 8.006 0 0 1-7.936 9.136zM132.158 519.996c-0.39 0-0.766-0.024-1.156-0.078a8.008 8.008 0 0 1-6.778-9.05c17.46-121.88 92.192-230.87 199.94-291.546 3.78-2.178 8.7-0.828 10.886 3.046a7.978 7.978 0 0 1-3.046 10.884c-103.436 58.256-175.186 162.886-191.944 279.88a8.004 8.004 0 0 1-7.902 6.864zM1015.77 775.878H679.924a7.992 7.992 0 0 1-7.998-7.996V543.984a7.994 7.994 0 0 1 7.998-7.996h335.846a7.992 7.992 0 0 1 7.996 7.996v223.898a7.99 7.99 0 0 1-7.996 7.996z m-327.85-15.992h319.854V551.982H687.92v207.904zM1015.77 807.866H679.924a7.994 7.994 0 0 1-7.998-7.998 7.994 7.994 0 0 1 7.998-7.996h335.846a7.992 7.992 0 0 1 7.996 7.996 7.992 7.992 0 0 1-7.996 7.998zM1015.77 839.85H679.924c-4.42 0-7.998-3.576-7.998-7.996s3.578-7.996 7.998-7.996h335.846c4.42 0 7.996 3.576 7.996 7.996s-3.576 7.996-7.996 7.996z"  /><path fill="#fdd000" d="M823.858 743.894c-1.454 0-2.92-0.39-4.232-1.218a8.004 8.004 0 0 1-2.546-11.028l79.964-127.942c2.342-3.746 7.308-4.84 11.01-2.53a8 8 0 0 1 2.544 11.026l-79.962 127.942a7.986 7.986 0 0 1-6.778 3.75z"  /><path fill="#fdd000" d="M983.786 743.894a7.99 7.99 0 0 1-6.78-3.75l-79.962-127.942a8 8 0 0 1 2.544-11.026c3.732-2.31 8.668-1.216 11.01 2.53l79.964 127.942a8 8 0 0 1-2.546 11.028 7.896 7.896 0 0 1-4.23 1.218zM743.894 743.894a7.998 7.998 0 0 1-6.654-12.434l63.97-95.956a7.996 7.996 0 1 1 13.306 8.872l-63.97 95.956a7.99 7.99 0 0 1-6.652 3.562z"  /><path fill="#fdd000" d="M829.168 679.892a7.994 7.994 0 0 1-6.654-3.56l-21.302-31.956a7.994 7.994 0 1 1 13.306-8.872l21.302 31.956a7.994 7.994 0 0 1-6.652 12.432zM735.898 631.946c-17.632 0-31.986-14.338-31.986-31.984 0-17.648 14.354-31.986 31.986-31.986s31.984 14.338 31.984 31.986c0 17.646-14.35 31.984-31.984 31.984z m0-47.98c-8.824 0-15.994 7.186-15.994 15.994 0 8.806 7.17 15.992 15.994 15.992s15.992-7.186 15.992-15.992c0-8.808-7.168-15.994-15.992-15.994z"  /><path fill="#fdd000" d="M679.924 376.062H360.07a7.992 7.992 0 0 1-7.998-7.996V64.206a7.992 7.992 0 0 1 7.998-7.996h319.854a7.99 7.99 0 0 1 7.996 7.996v303.862a7.99 7.99 0 0 1-7.996 7.994z m-311.858-15.992h303.86V72.202h-303.86v287.868z"  /><path fill="#fdd000" d="M535.988 280.106a7.994 7.994 0 0 1-7.996-7.998V160.162a7.994 7.994 0 0 1 7.996-7.998 7.992 7.992 0 0 1 7.996 7.998v111.948a7.99 7.99 0 0 1-7.996 7.996z"  /><path fill="#fdd000" d="M504.004 312.092c-22.052 0-39.982-17.938-39.982-39.982s17.93-39.982 39.982-39.982 39.98 17.938 39.98 39.982-17.928 39.982-39.98 39.982z m0-63.97c-13.228 0-23.99 10.76-23.99 23.988s10.76 23.99 23.99 23.99 23.988-10.762 23.988-23.99-10.76-23.988-23.988-23.988zM599.96 168.158h-63.972c-4.418 0-7.996-3.576-7.996-7.996s3.578-7.998 7.996-7.998h63.972c4.418 0 7.996 3.578 7.996 7.998s-3.578 7.996-7.996 7.996z"  /><path fill="#fdd000" d="M551.982 200.142a7.994 7.994 0 0 1-4.436-14.648l47.976-31.986a7.996 7.996 0 1 1 8.872 13.306L556.418 198.8a7.982 7.982 0 0 1-4.436 1.342zM392.054 360.07a7.992 7.992 0 0 1-7.996-7.998V80.198c0-4.42 3.576-7.996 7.996-7.996s7.996 3.576 7.996 7.996v271.876a7.99 7.99 0 0 1-7.996 7.996zM368.066 152.164h-7.996c-4.42 0-7.998-3.576-7.998-7.996s3.578-7.996 7.998-7.996h7.996c4.42 0 7.996 3.576 7.996 7.996s-3.576 7.996-7.996 7.996zM368.066 104.186h-7.996c-4.42 0-7.998-3.576-7.998-7.996s3.578-7.998 7.998-7.998h7.996c4.42 0 7.996 3.578 7.996 7.998s-3.576 7.996-7.996 7.996zM368.066 200.142h-7.996c-4.42 0-7.998-3.576-7.998-7.996s3.578-7.996 7.998-7.996h7.996c4.42 0 7.996 3.576 7.996 7.996s-3.576 7.996-7.996 7.996zM368.066 248.122h-7.996c-4.42 0-7.998-3.576-7.998-7.996s3.578-7.998 7.998-7.998h7.996c4.42 0 7.996 3.578 7.996 7.998s-3.576 7.996-7.996 7.996zM368.066 296.1h-7.996c-4.42 0-7.998-3.578-7.998-7.998s3.578-7.996 7.998-7.996h7.996c4.42 0 7.996 3.576 7.996 7.996s-3.576 7.998-7.996 7.998zM368.066 344.078h-7.996c-4.42 0-7.998-3.578-7.998-7.998s3.578-7.996 7.998-7.996h7.996c4.42 0 7.996 3.576 7.996 7.996s-3.576 7.998-7.996 7.998z"  /><path fill="#fdd000" d="M40.7 807.866c-4.42 0-8.074-3.576-8.074-7.998 0-4.418 3.498-7.996 7.902-7.996h0.172a8.002 8.002 0 0 1 7.996 7.996 8 8 0 0 1-7.996 7.998zM72.686 807.866c-4.42 0-8.074-3.576-8.074-7.998 0-4.418 3.498-7.996 7.902-7.996h0.172a8.002 8.002 0 0 1 7.996 7.996 8 8 0 0 1-7.996 7.998zM312.576 807.866c-4.42 0-8.074-3.576-8.074-7.998 0-4.418 3.498-7.996 7.902-7.996h0.172a8.002 8.002 0 0 1 7.996 7.996 8 8 0 0 1-7.996 7.998zM280.59 807.866c-4.42 0-8.074-3.576-8.074-7.998 0-4.418 3.498-7.996 7.902-7.996h0.172a8.004 8.004 0 0 1 7.998 7.996 8.004 8.004 0 0 1-7.998 7.998z"  /><path fill="#fdd000" d="M344.078 839.85H8.23a7.99 7.99 0 0 1-7.996-7.996V543.984a7.992 7.992 0 0 1 7.996-7.996h335.846a7.994 7.994 0 0 1 7.996 7.996v287.87a7.99 7.99 0 0 1-7.994 7.996zM16.226 823.858H336.08V551.982H16.226v271.876z"  /><path fill="#fdd000" d="M136.172 775.878H40.216c-4.418 0-7.996-3.576-7.996-7.996s3.578-7.996 7.996-7.996h95.956c4.42 0 7.996 3.576 7.996 7.996s-3.576 7.996-7.996 7.996zM312.092 775.878h-95.958c-4.418 0-7.996-3.576-7.996-7.996s3.578-7.996 7.996-7.996h95.958c4.42 0 7.996 3.576 7.996 7.996s-3.576 7.996-7.996 7.996zM176.154 791.872c-13.228 0-23.99-10.76-23.99-23.988s10.762-23.988 23.99-23.988 23.988 10.76 23.988 23.988-10.76 23.988-23.988 23.988z m0-31.986c-4.404 0-7.998 3.592-7.998 7.996s3.592 7.996 7.998 7.996 7.996-3.592 7.996-7.996-3.592-7.996-7.996-7.996zM176.154 711.908c-35.282 0-63.97-28.706-63.97-63.97s28.69-63.97 63.97-63.97 63.97 28.706 63.97 63.97-28.69 63.97-63.97 63.97z m0-111.948c-26.458 0-47.978 21.52-47.978 47.976s21.522 47.978 47.978 47.978c26.456 0 47.978-21.522 47.978-47.978s-21.522-47.976-47.978-47.976z"  /><path fill="#fdd000" d="M168.158 679.83a8.02 8.02 0 0 1-3.576-0.844 8.016 8.016 0 0 1-4.42-7.154v-47.976c0-3.032 1.718-5.794 4.42-7.152a8.034 8.034 0 0 1 8.372 0.748l31.986 23.99a8.018 8.018 0 0 1 3.202 6.402 8.016 8.016 0 0 1-3.202 6.404l-31.986 23.988a7.942 7.942 0 0 1-4.796 1.594z m7.996-39.982v15.992l10.666-7.996-10.666-7.996z"  /><path fill="#fdd000" d="M512 711.908c-38.326 0-73.592-19.302-94.3-51.632a7.99 7.99 0 0 1 2.42-11.042c3.67-2.39 8.636-1.312 11.042 2.42 17.758 27.708 47.978 44.262 80.838 44.262 52.914 0 95.958-43.042 95.958-95.956 0-4.422 3.576-7.998 7.996-7.998s7.996 3.576 7.996 7.998c0 61.722-50.228 111.948-111.95 111.948zM408.048 607.958a7.994 7.994 0 0 1-7.998-7.996c0-61.722 50.228-111.934 111.95-111.934 38.326 0 73.576 19.294 94.316 51.618a7.984 7.984 0 0 1-2.406 11.042c-3.732 2.358-8.668 1.312-11.056-2.42-17.79-27.7-48.01-44.246-80.854-44.246-52.914 0-95.956 43.028-95.956 95.942a7.994 7.994 0 0 1-7.996 7.994z"  /><path fill="#fdd000" d="M599.96 615.984a7.968 7.968 0 0 1-5.654-2.344 7.992 7.992 0 0 1 0-11.306l15.992-15.994a7.992 7.992 0 0 1 11.306 0 7.994 7.994 0 0 1 0 11.308l-15.992 15.992a7.96 7.96 0 0 1-5.652 2.344z"  /><path fill="#fdd000" d="M631.946 615.984a7.972 7.972 0 0 1-5.654-2.344l-15.992-15.992a7.994 7.994 0 0 1 0-11.308 7.992 7.992 0 0 1 11.306 0l15.992 15.994a7.992 7.992 0 0 1 0 11.306 7.956 7.956 0 0 1-5.652 2.344zM408.048 623.98a7.972 7.972 0 0 1-5.654-2.344 7.992 7.992 0 0 1 0-11.306l15.992-15.992a7.992 7.992 0 0 1 11.306 0 7.992 7.992 0 0 1 0 11.306l-15.992 15.992a7.956 7.956 0 0 1-5.652 2.344z"  /><path fill="#fdd000" d="M408.048 623.98a7.972 7.972 0 0 1-5.654-2.344l-15.994-15.992a7.996 7.996 0 0 1 11.308-11.306l15.992 15.992a7.992 7.992 0 0 1 0 11.306 7.956 7.956 0 0 1-5.652 2.344z"  /></svg>