<?xml version="1.0" standalone="no"?><!DOCTYPE svg PUBLIC "-//W3C//DTD SVG 1.1//EN" "http://www.w3.org/Graphics/SVG/1.1/DTD/svg11.dtd"><svg class="icon" width="200px" height="200.00px" viewBox="0 0 1024 1024" version="1.1" xmlns="http://www.w3.org/2000/svg"><path fill="#2c2c2c" d="M873.3 848.5h-41.2V471.3c0-13.3-10.3-24-23-24s-23 10.8-23 24V848.5h-356V471.6c0-13.3-10.3-24.1-23-24.1s-23 10.8-23 24.1v376.9H237.8V471.8c0-13.5-10.3-24.4-23-24.4s-23 10.9-23 24.4v376.7h-40.7c-12.7 0-23 10.3-23 23s10.3 23 23 23h722.1c12.7 0 23-10.3 23-23 0.1-12.7-10.2-23-22.9-23zM279.1 575.8c-12.7 0-23 10.3-23 23v56c0 12.7 10.3 23 23 23s23-10.3 23-23v-56c0-12.7-10.3-23-23-23zM746.8 626.2c9-9 9-23.5 0-32.5L608.3 455.2c-9-9-23.5-9-32.5 0s-9 23.5 0 32.5l138.5 138.5c9 8.9 23.5 8.9 32.5 0zM567.8 549.2c-9 9-9 23.5 0 32.5l79.6 79.6c9 9 23.5 9 32.5 0s9-23.5 0-32.5l-79.6-79.6c-9-9-23.5-9-32.5 0zM215.2 174.4h594.1c12.7 0 23-10.3 23-23s-10.3-23-23-23H215.2c-12.7 0-23 10.3-23 23s10.3 23 23 23zM515.4 447.6c-24.2 0-45.9-4.9-65.7-14.9-0.9-0.5-2-0.5-3 0-13.9 7-30.2 10.6-48 10.6-0.2 0-16.6-0.1-23.2-0.8-25.4-2.6-44.4-10.2-58-18.3-0.9-0.5-2-0.6-3-0.2-18.3 7.3-35 10.6-54.4 10.6-12.8 0-25-1.4-35.4-4.1-52.9-13.6-72.9-38.8-79.9-59.9-0.2-0.6-0.5-1.1-1-1.4-7.3-6.4-19.2-20.2-14.9-45.3 4.3-24.7 23.8-56.3 59.3-96.1 0.7-0.8 1-1.9 0.8-2.9-0.4-1.8-0.6-3.7-0.6-5.7 0-15.5 14-28.1 31.2-28.1h584.9c17.2 0 31.2 12.6 31.2 28.1 0 3-0.5 5.8-1.5 8.5-0.4 1.1-0.2 2.3 0.6 3.2 33 39.7 52.3 70.4 58.8 93.4 6.4 23-0.5 35.9-7.8 43.9-0.3 0.4-0.6 0.8-0.7 1.2-4.4 14.1-13.2 26.3-26.3 36.5-13.5 10.5-31.7 18.7-54 24.5-10.5 2.7-22.4 4.1-35.4 4.1-18.8 0-37.9-2.9-53.4-8.1-0.9-0.3-1.8-0.2-2.6 0.2-15.6 8.4-33.9 13.8-53.7 15.8-4.7 0.5-9.5 0.8-14.3 0.8-19.1 0-36.6-4.2-51.4-12.3-1-0.5-2.1-0.5-3.1-0.1-18.1 9.1-40.9 14.9-65 16.3-3.1 0.4-6.6 0.5-10.5 0.5z m-70.8-62.8c1.1-0.9 2.7-1 3.9-0.2l12.1 8.1c11.1 7.4 27.4 15.9 54.8 15.9 2.9 0 5.4-0.1 7.6-0.2h0.2c22.7-1.3 43.6-7.7 56.1-17.2l12.9-9.8c1.2-1 3-0.9 4.2 0.1l12.1 10.5c9.4 8.2 21.9 12.3 37.1 12.3 3 0 6-0.2 9.1-0.5h0.2c17.8-1.8 32.7-7 44.4-15.5l9.8-7.1c1-0.7 2.3-0.8 3.4-0.3l11 5.5c0.8 0.4 1.6 0.8 2.3 1.2 1 0.5 1.5 0.8 2 1 10.9 4.3 26.5 6.9 41.7 6.9 8.8 0 16.9-0.9 23.4-2.6 45.7-11.8 49.9-30.7 51.2-36.9v-0.2c1.4-6.1 5.4-9.8 7.5-11.8l0.1-0.1c0.6-0.6 1-1.3 1-2.2 0.4-5.8-2.9-30.6-65-102.1l-7.4-8.5c-0.6-0.7-1.5-1.1-2.5-1.1H244.1c-0.9 0-1.8 0.4-2.4 1l-8.2 8.7c-46.5 49.6-59.1 76.3-61.5 90-1.5 8.4 0.7 10.1 4 12.7 2.8 2.2 8.1 6.3 9.7 13.6 3.6 16.6 20.9 29 51.2 36.8 6.5 1.7 14.8 2.6 23.5 2.6 13.3 0 24-2.1 36.7-7.2 3.3-1.3 5-2.5 6.2-3.5l12.8-10.3c1.2-1 3-1 4.2 0.1l12.4 10.6c12 10.2 28.2 16.4 48 18.5h0.2c2.4 0.3 13.2 0.5 18 0.5 14.2 0 25.8-3.5 34.5-10.5l11.2-8.8zM143 363.7zM582.168 230.37l15.772-12.3 139.359 178.696-15.772 12.3zM703.543 214.485l15.436-12.718 144.095 174.89-15.436 12.718zM460.405 217.49l16.146-11.802 145.813 199.484-16.146 11.802zM319.638 215.46l16.626-11.116 137.338 205.414-16.626 11.116zM200.036 215.375l16.626-11.116L354 409.673l-16.626 11.116z" /></svg>