<?xml version="1.0" standalone="no"?><!DOCTYPE svg PUBLIC "-//W3C//DTD SVG 1.1//EN" "http://www.w3.org/Graphics/SVG/1.1/DTD/svg11.dtd"><svg class="icon" width="200px" height="200.00px" viewBox="0 0 1024 1024" version="1.1" xmlns="http://www.w3.org/2000/svg"><path fill="#ffffff" d="M273.066667 185.6c-12.8 4.266667-23.466667 10.666667-34.133334 19.2-10.666667 6.4-21.333333 14.933333-29.866666 23.466667-8.533333 8.533333-17.066667 19.2-23.466667 29.866666-6.4 10.666667-12.8 21.333333-19.2 34.133334-4.266667 8.533333 0 19.2 8.533333 21.333333 8.533333 4.266667 19.2 0 21.333334-8.533333 4.266667-10.666667 8.533333-19.2 14.933333-27.733334 6.4-8.533333 12.8-17.066667 19.2-23.466666 8.533333-8.533333 14.933333-14.933333 25.6-21.333334 8.533333-6.4 19.2-10.666667 27.733333-14.933333 8.533333-4.266667 12.8-12.8 8.533334-21.333333 0-8.533333-10.666667-12.8-19.2-10.666667zM725.333333 501.333333c-8.533333 0-17.066667 8.533333-17.066666 17.066667 0 21.333333-4.266667 42.666667-12.8 64-8.533333 19.2-19.2 36.266667-36.266667 53.333333-14.933333 17.066667-34.133333 27.733333-53.333333 36.266667-19.2 8.533333-40.533333 12.8-64 12.8-8.533333 0-17.066667 8.533333-17.066667 17.066667s6.4 17.066667 17.066667 17.066666c25.6 0 51.2-4.266667 76.8-14.933333 23.466667-10.666667 44.8-23.466667 64-42.666667 19.2-19.2 34.133333-40.533333 42.666666-64 10.666667-23.466667 14.933333-51.2 14.933334-76.8 2.133333-10.666667-6.4-19.2-14.933334-19.2zM443.733333 14.933333c-234.666667 0-426.666667 192-426.666666 426.666667s192 426.666667 426.666666 426.666667 426.666667-192 426.666667-426.666667c0-236.8-192-426.666667-426.666667-426.666667z m0 808.533334c-211.2 0-381.866667-170.666667-381.866666-381.866667 0-211.2 170.666667-381.866667 381.866666-381.866667 211.2 0 381.866667 170.666667 381.866667 381.866667 0 209.066667-170.666667 381.866667-381.866667 381.866667z m544 74.666666l-119.466666-123.733333c-12.8-12.8-27.733333-19.2-44.8-19.2s-32 6.4-44.8 19.2c-25.6 25.6-25.6 66.133333 0 91.733333l119.466666 123.733334c12.8 12.8 27.733333 19.2 44.8 19.2s32-6.4 44.8-19.2c25.6-25.6 25.6-66.133333 0-91.733334zM960 960c-6.4 6.4-10.666667 6.4-14.933333 6.4s-8.533333 0-14.933334-6.4L810.666667 836.266667c-8.533333-8.533333-8.533333-23.466667 0-29.866667 6.4-6.4 10.666667-6.4 14.933333-6.4 4.266667 0 8.533333 0 14.933333 6.4l119.466667 123.733333c6.4 6.4 6.4 12.8 6.4 14.933334-2.133333 2.133333-2.133333 8.533333-6.4 14.933333z"  /></svg>